<?xml version="1.0" encoding="UTF-8" standalone="no"?>
<svg xmlns:dc="http://purl.org/dc/elements/1.1/" xmlns:cc="http://creativecommons.org/ns#" xmlns:rdf="http://www.w3.org/1999/02/22-rdf-syntax-ns#" xmlns:svg="http://www.w3.org/2000/svg" xmlns="http://www.w3.org/2000/svg" id="svg8" version="1.1" viewBox="0 0 238.52187 75.075526" height="283.75" width="901.5">
  <defs id="defs2">
    <filter id="filter984" style="color-interpolation-filters:sRGB;">
      <feGaussianBlur id="feGaussianBlur982" result="blur" stdDeviation="0.25 0.25"/>
    </filter>
    <filter id="filter988" style="color-interpolation-filters:sRGB;">
      <feGaussianBlur id="feGaussianBlur986" result="blur" stdDeviation="0.25 0.25"/>
    </filter>
    <filter id="filter984-6" style="color-interpolation-filters:sRGB">
      <feGaussianBlur id="feGaussianBlur982-5" result="blur" stdDeviation="0.25 0.25"/>
    </filter>
    <filter id="filter984-8" style="color-interpolation-filters:sRGB">
      <feGaussianBlur id="feGaussianBlur982-59" result="blur" stdDeviation="0.25 0.25"/>
    </filter>
    <filter id="filter984-6-7" style="color-interpolation-filters:sRGB">
      <feGaussianBlur id="feGaussianBlur982-5-3" result="blur" stdDeviation="0.25 0.25"/>
    </filter>
    <filter id="filter984-6-4" style="color-interpolation-filters:sRGB">
      <feGaussianBlur id="feGaussianBlur982-5-7" result="blur" stdDeviation="0.25 0.25"/>
    </filter>
    <filter id="filter984-6-72" style="color-interpolation-filters:sRGB">
      <feGaussianBlur id="feGaussianBlur982-5-2" result="blur" stdDeviation="0.25 0.25"/>
    </filter>
    <filter id="filter984-6-6" style="color-interpolation-filters:sRGB">
      <feGaussianBlur id="feGaussianBlur982-5-30" result="blur" stdDeviation="0.25 0.25"/>
    </filter>
    <filter id="filter984-6-1" style="color-interpolation-filters:sRGB">
      <feGaussianBlur id="feGaussianBlur982-5-5" result="blur" stdDeviation="0.25 0.25"/>
    </filter>
    <filter id="filter984-6-0" style="color-interpolation-filters:sRGB">
      <feGaussianBlur id="feGaussianBlur982-5-0" result="blur" stdDeviation="0.25 0.25"/>
    </filter>
    <filter id="filter984-6-46" style="color-interpolation-filters:sRGB">
      <feGaussianBlur id="feGaussianBlur982-5-6" result="blur" stdDeviation="0.25 0.25"/>
    </filter>
    <filter id="filter984-6-2" style="color-interpolation-filters:sRGB">
      <feGaussianBlur id="feGaussianBlur982-5-58" result="blur" stdDeviation="0.25 0.25"/>
    </filter>
    <filter id="filter984-6-06" style="color-interpolation-filters:sRGB">
      <feGaussianBlur id="feGaussianBlur982-5-08" result="blur" stdDeviation="0.25 0.25"/>
    </filter>
    <filter id="filter984-6-8" style="color-interpolation-filters:sRGB">
      <feGaussianBlur id="feGaussianBlur982-5-21" result="blur" stdDeviation="0.25 0.25"/>
    </filter>
    <filter id="filter984-6-85" style="color-interpolation-filters:sRGB">
      <feGaussianBlur id="feGaussianBlur982-5-50" result="blur" stdDeviation="0.25 0.25"/>
    </filter>
    <filter id="filter984-6-3" style="color-interpolation-filters:sRGB">
      <feGaussianBlur id="feGaussianBlur982-5-8" result="blur" stdDeviation="0.25 0.25"/>
    </filter>
    <filter id="filter984-6-07" style="color-interpolation-filters:sRGB">
      <feGaussianBlur id="feGaussianBlur982-5-77" result="blur" stdDeviation="0.25 0.25"/>
    </filter>
    <filter id="filter984-6-11" style="color-interpolation-filters:sRGB">
      <feGaussianBlur id="feGaussianBlur982-5-9" result="blur" stdDeviation="0.25 0.25"/>
    </filter>
    <filter id="filter984-6-9" style="color-interpolation-filters:sRGB">
      <feGaussianBlur id="feGaussianBlur982-5-88" result="blur" stdDeviation="0.25 0.25"/>
    </filter>
    <filter id="filter984-6-70" style="color-interpolation-filters:sRGB">
      <feGaussianBlur id="feGaussianBlur982-5-69" result="blur" stdDeviation="0.25 0.25"/>
    </filter>
    <filter id="filter984-6-7-6" style="color-interpolation-filters:sRGB">
      <feGaussianBlur id="feGaussianBlur982-5-3-7" result="blur" stdDeviation="0.25 0.25"/>
    </filter>
    <filter id="filter984-6-7-4" style="color-interpolation-filters:sRGB">
      <feGaussianBlur id="feGaussianBlur982-5-3-8" result="blur" stdDeviation="0.25 0.25"/>
    </filter>
    <filter id="filter984-6-7-8" style="color-interpolation-filters:sRGB">
      <feGaussianBlur id="feGaussianBlur982-5-3-1" result="blur" stdDeviation="0.25 0.25"/>
    </filter>
    <filter id="filter984-6-852" style="color-interpolation-filters:sRGB">
      <feGaussianBlur id="feGaussianBlur982-5-1" result="blur" stdDeviation="0.25 0.25"/>
    </filter>
  </defs>
  
  <g transform="translate(0,-221.92445)" id="layer1">
    <rect y="221.92445" x="-7.1054274e-15" height="75.075523" width="238.52188" id="rect815" style="fill:#000000;fill-opacity:1;stroke:none;stroke-width:2.1910367;stroke-miterlimit:4;stroke-dasharray:none;stroke-opacity:1"/>
    <g id="text819" style="font-style:normal;font-weight:normal;font-size:70.55554962px;line-height:1.25;font-family:sans-serif;letter-spacing:0px;word-spacing:0px;fill:#000000;fill-opacity:1;stroke:none;stroke-width:0.26458332" aria-label="hackumenta">
      <path id="path1815" style="font-style:normal;font-variant:normal;font-weight:normal;font-stretch:normal;font-size:50.79999924px;font-family:ISOCPEUR;-inkscape-font-specification:'ISOCPEUR, Normal';font-variant-ligatures:normal;font-variant-caps:normal;font-variant-numeric:normal;font-feature-settings:normal;text-align:start;writing-mode:lr-tb;text-anchor:start;fill:#ffffff;fill-opacity:1;stroke-width:0.26458332" d="m 7.9374997,231.49908 q 0,-1.63711 1.6371093,-1.63711 1.637109,0 1.637109,1.63711 v 8.18555 h 6.548438 q 2.703711,0 4.613672,1.88515 1.934765,1.88516 1.934765,4.53926 v 14.85801 q 0,1.63711 -1.637109,1.63711 -1.63711,0 -1.63711,-1.63711 v -14.73399 q 0,-1.38906 -0.942578,-2.33164 -0.942578,-0.94258 -2.33164,-0.94258 h -6.548438 v 18.00821 q 0,1.63711 -1.637109,1.63711 -1.6371093,0 -1.6371093,-1.63711 z"/>
      <path id="path1817" style="font-style:normal;font-variant:normal;font-weight:normal;font-stretch:normal;font-size:50.79999924px;font-family:ISOCPEUR;-inkscape-font-specification:'ISOCPEUR, Normal';font-variant-ligatures:normal;font-variant-caps:normal;font-variant-numeric:normal;font-feature-settings:normal;text-align:start;writing-mode:lr-tb;text-anchor:start;fill:#ffffff;fill-opacity:1;stroke-width:0.26458332" d="m 37.405468,262.60416 q -2.75332,0 -4.663281,-1.88516 -1.885156,-1.90996 -1.885156,-4.66328 0,-1.78594 0.868164,-3.29902 1.860351,-3.24942 5.680273,-3.24942 h 6.548437 v -3.27422 q 0,-1.38906 -0.942578,-2.33164 -0.942578,-0.94258 -2.33164,-0.94258 h -6.548438 q -1.637109,0 -1.637109,-1.63711 0,-1.6371 1.637109,-1.6371 h 6.548438 q 2.75332,0 4.638476,1.90996 1.909961,1.88515 1.909961,4.63847 v 14.73399 q 0,1.63711 -1.637109,1.63711 z m 6.548437,-9.82266 h -6.548437 q -1.364258,0 -2.331641,0.96738 -0.942578,0.94258 -0.942578,2.30684 0,1.33945 0.967383,2.30683 0.967383,0.96739 2.306836,0.96739 h 6.548437 z"/>
      <path id="path1819" style="font-style:normal;font-variant:normal;font-weight:normal;font-stretch:normal;font-size:50.79999924px;font-family:ISOCPEUR;-inkscape-font-specification:'ISOCPEUR, Normal';font-variant-ligatures:normal;font-variant-caps:normal;font-variant-numeric:normal;font-feature-settings:normal;text-align:start;writing-mode:lr-tb;text-anchor:start;fill:#ffffff;fill-opacity:1;stroke-width:0.26458332" d="m 57.05078,246.23306 v 9.82266 q 0,1.33945 0.967383,2.30683 0.967383,0.96739 2.306836,0.96739 h 4.911328 q 1.637109,0 1.637109,1.63711 0,1.63711 -1.637109,1.63711 h -4.911328 q -2.75332,0 -4.663281,-1.88516 -1.885157,-1.90996 -1.885157,-4.66328 v -9.82266 q 0,-2.75332 1.885157,-4.63847 1.909961,-1.90996 4.663281,-1.90996 h 4.911328 q 1.637109,0 1.637109,1.6371 0,1.63711 -1.637109,1.63711 h -4.911328 q -1.364258,0 -2.331641,0.96739 -0.942578,0.94258 -0.942578,2.30683 z"/>
      <path id="path1821" style="font-style:normal;font-variant:normal;font-weight:normal;font-stretch:normal;font-size:50.79999924px;font-family:ISOCPEUR;-inkscape-font-specification:'ISOCPEUR, Normal';font-variant-ligatures:normal;font-variant-caps:normal;font-variant-numeric:normal;font-feature-settings:normal;text-align:start;writing-mode:lr-tb;text-anchor:start;fill:#ffffff;fill-opacity:1;stroke-width:0.26458332" d="m 76.696093,251.96295 v 9.0041 q 0,1.63711 -1.637109,1.63711 -1.637109,0 -1.637109,-1.63711 v -29.46797 q 0,-1.63711 1.637109,-1.63711 1.637109,0 1.637109,1.63711 v 16.34629 l 10.467578,-7.83828 q 0.42168,-0.32246 0.992188,-0.32246 1.637109,0 1.637109,1.6371 0,0.84336 -0.644922,1.31465 l -6.35,4.7625 6.821289,12.79922 q 0.173633,0.32246 0.173633,0.76895 0,0.66972 -0.496094,1.16582 -0.471289,0.47129 -1.141015,0.47129 -0.967383,0 -1.438672,-0.86817 l -6.573242,-12.32793 z"/>
      <path id="path1823" style="font-style:normal;font-variant:normal;font-weight:normal;font-stretch:normal;font-size:50.79999924px;font-family:ISOCPEUR;-inkscape-font-specification:'ISOCPEUR, Normal';font-variant-ligatures:normal;font-variant-caps:normal;font-variant-numeric:normal;font-feature-settings:normal;text-align:start;writing-mode:lr-tb;text-anchor:start;fill:#ffffff;fill-opacity:1;stroke-width:0.26458332" d="m 112.71249,241.32173 v 19.64532 q 0,1.63711 -1.63711,1.63711 h -8.18554 q -2.75332,0 -4.663284,-1.88516 -1.885156,-1.90996 -1.885156,-4.66328 v -14.73399 q 0,-1.6371 1.637109,-1.6371 1.63711,0 1.63711,1.6371 v 14.73399 q 0,1.33945 0.967381,2.30683 0.96738,0.96739 2.30684,0.96739 h 6.54843 v -18.00821 q 0,-1.6371 1.63711,-1.6371 1.63711,0 1.63711,1.6371 z"/>
      <path id="path1825" style="font-style:normal;font-variant:normal;font-weight:normal;font-stretch:normal;font-size:50.79999924px;font-family:ISOCPEUR;-inkscape-font-specification:'ISOCPEUR, Normal';font-variant-ligatures:normal;font-variant-caps:normal;font-variant-numeric:normal;font-feature-settings:normal;text-align:start;writing-mode:lr-tb;text-anchor:start;fill:#ffffff;fill-opacity:1;stroke-width:0.26458332" d="m 120.89804,239.68463 h 14.73399 q 2.75332,0 4.63847,1.90996 1.90996,1.88515 1.90996,4.63847 v 14.73399 q 0,1.63711 -1.63711,1.63711 -1.63711,0 -1.63711,-1.63711 v -14.73399 q 0,-1.38906 -0.94257,-2.33164 -0.94258,-0.94258 -2.33164,-0.94258 h -3.27422 v 18.00821 q 0,1.63711 -1.63711,1.63711 -1.63711,0 -1.63711,-1.63711 v -18.00821 h -6.54844 v 18.00821 q 0,1.63711 -1.63711,1.63711 -1.63711,0 -1.63711,-1.63711 v -19.64532 q 0,-1.6371 1.63711,-1.6371 z"/>
      <path id="path1827" style="font-style:normal;font-variant:normal;font-weight:normal;font-stretch:normal;font-size:50.79999924px;font-family:ISOCPEUR;-inkscape-font-specification:'ISOCPEUR, Normal';font-variant-ligatures:normal;font-variant-caps:normal;font-variant-numeric:normal;font-feature-settings:normal;text-align:start;writing-mode:lr-tb;text-anchor:start;fill:#ffffff;fill-opacity:1;stroke-width:0.26458332" d="m 156.91444,242.95884 q -2.03398,0 -3.47265,1.43868 -1.43867,1.43867 -1.43867,3.47265 v 1.63711 h 9.82265 v -1.63711 q 0,-2.03398 -1.43867,-3.47265 -1.43867,-1.43868 -3.47266,-1.43868 z m -4.91132,9.82266 v 3.27422 q 0,1.33945 0.96738,2.30683 0.96738,0.96739 2.30683,0.96739 h 8.18555 q 1.63711,0 1.63711,1.63711 0,1.63711 -1.63711,1.63711 h -8.18555 q -2.75332,0 -4.66328,-1.88516 -1.88515,-1.90996 -1.88515,-4.66328 v -8.18555 q 0,-3.39824 2.38125,-5.77949 2.40605,-2.40605 5.80429,-2.40605 3.44786,0 5.8043,2.38125 2.38125,2.35644 2.38125,5.80429 v 4.91133 z"/>
      <path id="path1829" style="font-style:normal;font-variant:normal;font-weight:normal;font-stretch:normal;font-size:50.79999924px;font-family:ISOCPEUR;-inkscape-font-specification:'ISOCPEUR, Normal';font-variant-ligatures:normal;font-variant-caps:normal;font-variant-numeric:normal;font-feature-settings:normal;text-align:start;writing-mode:lr-tb;text-anchor:start;fill:#ffffff;fill-opacity:1;stroke-width:0.26458332" d="m 171.64844,260.96705 v -19.64532 q 0,-1.6371 1.63711,-1.6371 h 8.18554 q 2.75332,0 4.63848,1.90996 1.90996,1.88515 1.90996,4.63847 v 14.73399 q 0,1.63711 -1.63711,1.63711 -1.63711,0 -1.63711,-1.63711 v -14.73399 q 0,-1.38906 -0.94258,-2.33164 -0.94257,-0.94258 -2.33164,-0.94258 h -6.54843 v 18.00821 q 0,1.63711 -1.63711,1.63711 -1.63711,0 -1.63711,-1.63711 z"/>
      <path id="path1831" style="font-style:normal;font-variant:normal;font-weight:normal;font-stretch:normal;font-size:50.79999924px;font-family:ISOCPEUR;-inkscape-font-specification:'ISOCPEUR, Normal';font-variant-ligatures:normal;font-variant-caps:normal;font-variant-numeric:normal;font-feature-settings:normal;text-align:start;writing-mode:lr-tb;text-anchor:start;fill:#ffffff;fill-opacity:1;stroke-width:0.26458332" d="m 197.84218,242.95884 h -1.63711 q -1.63711,0 -1.63711,-1.63711 0,-1.6371 1.63711,-1.6371 h 1.63711 v -8.18555 q 0,-1.63711 1.63711,-1.63711 1.63711,0 1.63711,1.63711 v 8.18555 h 4.91133 q 1.63711,0 1.63711,1.6371 0,1.63711 -1.63711,1.63711 h -4.91133 v 18.00821 q 0,1.63711 -1.63711,1.63711 -1.63711,0 -1.63711,-1.63711 z"/>
      <path id="path1833" style="font-style:normal;font-variant:normal;font-weight:normal;font-stretch:normal;font-size:50.79999924px;font-family:ISOCPEUR;-inkscape-font-specification:'ISOCPEUR, Normal';font-variant-ligatures:normal;font-variant-caps:normal;font-variant-numeric:normal;font-feature-settings:normal;text-align:start;writing-mode:lr-tb;text-anchor:start;fill:#ffffff;fill-opacity:1;stroke-width:0.26458332" d="m 220.76171,262.60416 q -2.75332,0 -4.66328,-1.88516 -1.88516,-1.90996 -1.88516,-4.66328 0,-1.78594 0.86817,-3.29902 1.86035,-3.24942 5.68027,-3.24942 h 6.54844 v -3.27422 q 0,-1.38906 -0.94258,-2.33164 -0.94258,-0.94258 -2.33164,-0.94258 h -6.54844 q -1.63711,0 -1.63711,-1.63711 0,-1.6371 1.63711,-1.6371 h 6.54844 q 2.75332,0 4.63847,1.90996 1.90997,1.88515 1.90997,4.63847 v 14.73399 q 0,1.63711 -1.63711,1.63711 z m 6.54844,-9.82266 h -6.54844 q -1.36426,0 -2.33164,0.96738 -0.94258,0.94258 -0.94258,2.30684 0,1.33945 0.96738,2.30683 0.96739,0.96739 2.30684,0.96739 h 6.54844 z"/>
    </g>
    <g id="text823" style="font-style:normal;font-weight:normal;font-size:70.55554962px;line-height:1.25;font-family:sans-serif;letter-spacing:0px;word-spacing:0px;fill:#000000;fill-opacity:1;stroke:none;stroke-width:0.26458332" aria-label="10 years in space">
      <path id="path1836" style="font-style:normal;font-variant:normal;font-weight:normal;font-stretch:normal;font-size:25.39999962px;font-family:ISOCPEUR;-inkscape-font-specification:'ISOCPEUR, Normal';font-variant-ligatures:normal;font-variant-caps:normal;font-variant-numeric:normal;font-feature-settings:normal;text-align:start;writing-mode:lr-tb;text-anchor:start;fill:#ffffff;fill-opacity:1;stroke-width:0.26458332" d="m 35.75513,270.57059 -1.885157,1.88515 q -0.235644,0.23565 -0.570507,0.23565 -0.818555,0 -0.818555,-0.81856 0,-0.33486 0.235644,-0.5705 l 3.199805,-3.19981 q 0.322461,-0.32246 0.657324,-0.32246 0.818555,0 0.818555,0.81855 v 14.73399 q 0,0.81855 -0.818555,0.81855 -0.818554,0 -0.818554,-0.81855 z"/>
      <path id="path1838" style="font-style:normal;font-variant:normal;font-weight:normal;font-stretch:normal;font-size:25.39999962px;font-family:ISOCPEUR;-inkscape-font-specification:'ISOCPEUR, Normal';font-variant-ligatures:normal;font-variant-caps:normal;font-variant-numeric:normal;font-feature-settings:normal;text-align:start;writing-mode:lr-tb;text-anchor:start;fill:#ffffff;fill-opacity:1;stroke-width:0.26458332" d="m 47.214895,275.96561 q 0,-2.03399 -0.434082,-3.83233 -0.657324,-2.71611 -2.021582,-2.71611 -1.351855,0 -2.00918,2.72851 -0.446484,1.83555 -0.446484,3.81993 0,2.02158 0.434082,3.83232 0.657324,2.71611 2.021582,2.71611 1.364258,0 2.021582,-2.71611 0.434082,-1.81074 0.434082,-3.83232 z m 1.637109,0 q 0,2.92695 -0.719335,5.06015 -1.0542,3.12539 -3.373438,3.12539 -2.319238,0 -3.373437,-3.11298 -0.719336,-2.13321 -0.719336,-5.07256 0,-2.93936 0.719336,-5.07256 1.054199,-3.11299 3.373437,-3.11299 2.319238,0 3.373438,3.12539 0.719335,2.1332 0.719335,5.06016 z"/>
      <path id="path1840" style="font-style:normal;font-variant:normal;font-weight:normal;font-stretch:normal;font-size:25.39999962px;font-family:ISOCPEUR;-inkscape-font-specification:'ISOCPEUR, Normal';font-variant-ligatures:normal;font-variant-caps:normal;font-variant-numeric:normal;font-feature-settings:normal;text-align:start;writing-mode:lr-tb;text-anchor:start;fill:#ffffff;fill-opacity:1;stroke-width:0.26458332" d="m 63.80923,287.42537 1.364258,-4.09277 -3.175,-9.56221 q -0.04961,-0.14883 -0.04961,-0.26045 0,-0.81855 0.818555,-0.81855 0.595312,0 0.781347,0.5581 l 2.492871,7.47862 2.492871,-7.47862 q 0.186035,-0.5581 0.781348,-0.5581 0.818555,0 0.818555,0.81855 0,0.11162 -0.04961,0.26045 l -4.898925,14.73399 q -0.186036,0.5581 -0.781348,0.5581 h -1.649512 q -0.818555,0 -0.818555,-0.81855 0,-0.65733 0.682129,-0.79375 0.111621,-0.0248 1.190625,-0.0248 z"/>
      <path id="path1842" style="font-style:normal;font-variant:normal;font-weight:normal;font-stretch:normal;font-size:25.39999962px;font-family:ISOCPEUR;-inkscape-font-specification:'ISOCPEUR, Normal';font-variant-ligatures:normal;font-variant-caps:normal;font-variant-numeric:normal;font-feature-settings:normal;text-align:start;writing-mode:lr-tb;text-anchor:start;fill:#ffffff;fill-opacity:1;stroke-width:0.26458332" d="m 77.501419,274.3285 q -1.016993,0 -1.736328,0.71933 -0.719336,0.71934 -0.719336,1.73633 v 0.81856 h 4.911328 v -0.81856 q 0,-1.01699 -0.719336,-1.73633 -0.719336,-0.71933 -1.736328,-0.71933 z m -2.455664,4.91133 v 1.6371 q 0,0.66973 0.483691,1.15342 0.483691,0.48369 1.153418,0.48369 h 4.092773 q 0.818555,0 0.818555,0.81856 0,0.81855 -0.818555,0.81855 h -4.092773 q -1.37666,0 -2.331641,-0.94257 -0.942578,-0.95499 -0.942578,-2.33165 v -4.09277 q 0,-1.69912 1.190625,-2.88974 1.203028,-1.20303 2.902149,-1.20303 1.723925,0 2.902148,1.19062 1.190625,1.17823 1.190625,2.90215 v 2.45567 z"/>
      <path id="path1844" style="font-style:normal;font-variant:normal;font-weight:normal;font-stretch:normal;font-size:25.39999962px;font-family:ISOCPEUR;-inkscape-font-specification:'ISOCPEUR, Normal';font-variant-ligatures:normal;font-variant-caps:normal;font-variant-numeric:normal;font-feature-settings:normal;text-align:start;writing-mode:lr-tb;text-anchor:start;fill:#ffffff;fill-opacity:1;stroke-width:0.26458332" d="m 88.142626,284.15115 q -1.37666,0 -2.33164,-0.94257 -0.942578,-0.95499 -0.942578,-2.33165 0,-0.89296 0.434082,-1.64951 0.930176,-1.6247 2.840136,-1.6247 h 3.274219 v -1.63711 q 0,-0.69453 -0.471289,-1.16582 -0.471289,-0.47129 -1.16582,-0.47129 h -3.274219 q -0.818555,0 -0.818555,-0.81856 0,-0.81855 0.818555,-0.81855 h 3.274219 q 1.37666,0 2.319238,0.95498 0.954981,0.94258 0.954981,2.31924 v 7.36699 q 0,0.81855 -0.818555,0.81855 z m 3.274219,-4.91132 h -3.274219 q -0.682128,0 -1.16582,0.48369 -0.471289,0.47129 -0.471289,1.15341 0,0.66973 0.483692,1.15342 0.483691,0.48369 1.153417,0.48369 h 3.274219 z"/>
      <path id="path1846" style="font-style:normal;font-variant:normal;font-weight:normal;font-stretch:normal;font-size:25.39999962px;font-family:ISOCPEUR;-inkscape-font-specification:'ISOCPEUR, Normal';font-variant-ligatures:normal;font-variant-caps:normal;font-variant-numeric:normal;font-feature-settings:normal;text-align:start;writing-mode:lr-tb;text-anchor:start;fill:#ffffff;fill-opacity:1;stroke-width:0.26458332" d="m 96.328174,273.50994 q 0,-0.81855 0.818555,-0.81855 h 4.911331 q 0.81855,0 0.81855,0.81855 v 1.63711 q 0,0.81856 -0.81855,0.81856 -0.81856,0 -0.81856,-0.81856 v -0.81855 h -3.274216 v 9.0041 q 0,0.81855 -0.818555,0.81855 -0.818555,0 -0.818555,-0.81855 z"/>
      <path id="path1848" style="font-style:normal;font-variant:normal;font-weight:normal;font-stretch:normal;font-size:25.39999962px;font-family:ISOCPEUR;-inkscape-font-specification:'ISOCPEUR, Normal';font-variant-ligatures:normal;font-variant-caps:normal;font-variant-numeric:normal;font-feature-settings:normal;text-align:start;writing-mode:lr-tb;text-anchor:start;fill:#ffffff;fill-opacity:1;stroke-width:0.26458332" d="m 112.69927,281.28621 q 0,-0.78135 -0.69453,-1.11621 l -4.2044,-2.02158 q -1.64951,-0.79375 -1.64951,-2.59209 0,-1.41387 1.16582,-2.18281 1.00459,-0.66973 2.50528,-0.66973 1.82314,0 3.26181,0.90537 0.43408,0.27285 0.43408,0.71934 0,0.33486 -0.24804,0.58291 -0.23565,0.23564 -0.57051,0.23564 -0.22324,0 -0.38447,-0.0992 -1.17823,-0.70693 -2.49287,-0.70693 -2.03399,0 -2.03399,1.21543 0,0.76894 0.66973,1.09141 l 4.2416,2.04638 q 1.63711,0.79375 1.63711,2.59209 0,1.48828 -1.17822,2.23242 -1.00459,0.63252 -2.59209,0.63252 -2.35645,0 -3.95635,-0.90537 -0.45889,-0.26045 -0.45889,-0.73174 0,-0.33486 0.23565,-0.5705 0.24804,-0.24805 0.58291,-0.24805 0.16123,0 0.31006,0.062 0.39687,0.17363 1.16582,0.45889 1.11621,0.29765 2.17041,0.29765 2.08359,0 2.08359,-1.22783 z"/>
      <path id="path1850" style="font-style:normal;font-variant:normal;font-weight:normal;font-stretch:normal;font-size:25.39999962px;font-family:ISOCPEUR;-inkscape-font-specification:'ISOCPEUR, Normal';font-variant-ligatures:normal;font-variant-caps:normal;font-variant-numeric:normal;font-feature-settings:normal;text-align:start;writing-mode:lr-tb;text-anchor:start;fill:#ffffff;fill-opacity:1;stroke-width:0.26458332" d="m 127.43325,273.50994 q 0,-0.81855 0.81855,-0.81855 0.81856,0 0.81856,0.81855 v 9.82266 q 0,0.81855 -0.81856,0.81855 -0.81855,0 -0.81855,-0.81855 z m 0,-4.09277 v -0.81856 q 0,-0.81855 0.81855,-0.81855 0.81856,0 0.81856,0.81855 v 0.81856 q 0,0.81855 -0.81856,0.81855 -0.81855,0 -0.81855,-0.81855 z"/>
      <path id="path1852" style="font-style:normal;font-variant:normal;font-weight:normal;font-stretch:normal;font-size:25.39999962px;font-family:ISOCPEUR;-inkscape-font-specification:'ISOCPEUR, Normal';font-variant-ligatures:normal;font-variant-caps:normal;font-variant-numeric:normal;font-feature-settings:normal;text-align:start;writing-mode:lr-tb;text-anchor:start;fill:#ffffff;fill-opacity:1;stroke-width:0.26458332" d="m 132.34458,283.3326 v -9.82266 q 0,-0.81855 0.81856,-0.81855 h 4.09277 q 1.37666,0 2.31924,0.95498 0.95498,0.94258 0.95498,2.31924 v 7.36699 q 0,0.81855 -0.81856,0.81855 -0.81855,0 -0.81855,-0.81855 v -7.36699 q 0,-0.69453 -0.47129,-1.16582 -0.47129,-0.47129 -1.16582,-0.47129 h -3.27422 v 9.0041 q 0,0.81855 -0.81855,0.81855 -0.81856,0 -0.81856,-0.81855 z"/>
      <path id="path1854" style="font-style:normal;font-variant:normal;font-weight:normal;font-stretch:normal;font-size:25.39999962px;font-family:ISOCPEUR;-inkscape-font-specification:'ISOCPEUR, Normal';font-variant-ligatures:normal;font-variant-caps:normal;font-variant-numeric:normal;font-feature-settings:normal;text-align:start;writing-mode:lr-tb;text-anchor:start;fill:#ffffff;fill-opacity:1;stroke-width:0.26458332" d="m 160.17544,281.28621 q 0,-0.78135 -0.69454,-1.11621 l -4.20439,-2.02158 q -1.64951,-0.79375 -1.64951,-2.59209 0,-1.41387 1.16582,-2.18281 1.00459,-0.66973 2.50527,-0.66973 1.82315,0 3.26182,0.90537 0.43408,0.27285 0.43408,0.71934 0,0.33486 -0.24805,0.58291 -0.23564,0.23564 -0.5705,0.23564 -0.22325,0 -0.38448,-0.0992 -1.17822,-0.70693 -2.49287,-0.70693 -2.03398,0 -2.03398,1.21543 0,0.76894 0.66972,1.09141 l 4.24161,2.04638 q 1.63711,0.79375 1.63711,2.59209 0,1.48828 -1.17823,2.23242 -1.00459,0.63252 -2.59209,0.63252 -2.35644,0 -3.95634,-0.90537 -0.45889,-0.26045 -0.45889,-0.73174 0,-0.33486 0.23564,-0.5705 0.24805,-0.24805 0.58291,-0.24805 0.16123,0 0.31006,0.062 0.39688,0.17363 1.16582,0.45889 1.11621,0.29765 2.17041,0.29765 2.0836,0 2.0836,-1.22783 z"/>
      <path id="path1856" style="font-style:normal;font-variant:normal;font-weight:normal;font-stretch:normal;font-size:25.39999962px;font-family:ISOCPEUR;-inkscape-font-specification:'ISOCPEUR, Normal';font-variant-ligatures:normal;font-variant-caps:normal;font-variant-numeric:normal;font-feature-settings:normal;text-align:start;writing-mode:lr-tb;text-anchor:start;fill:#ffffff;fill-opacity:1;stroke-width:0.26458332" d="m 165.08676,273.50994 q 0,-0.81855 0.81856,-0.81855 h 4.09277 q 1.37666,0 2.31924,0.95498 0.95498,0.94258 0.95498,2.31924 v 4.91132 q 0,1.36426 -0.95498,2.31924 -0.94258,0.95498 -2.31924,0.95498 h -3.27422 v 4.09278 q 0,0.81855 -0.81855,0.81855 -0.81856,0 -0.81856,-0.81855 z m 1.63711,0.81856 v 8.18554 h 3.27422 q 0.68213,0 1.15342,-0.47128 0.48369,-0.4837 0.48369,-1.16583 v -4.91132 q 0,-0.69453 -0.47129,-1.16582 -0.47129,-0.47129 -1.16582,-0.47129 z"/>
      <path id="path1858" style="font-style:normal;font-variant:normal;font-weight:normal;font-stretch:normal;font-size:25.39999962px;font-family:ISOCPEUR;-inkscape-font-specification:'ISOCPEUR, Normal';font-variant-ligatures:normal;font-variant-caps:normal;font-variant-numeric:normal;font-feature-settings:normal;text-align:start;writing-mode:lr-tb;text-anchor:start;fill:#ffffff;fill-opacity:1;stroke-width:0.26458332" d="m 179.82076,284.15115 q -1.37666,0 -2.33164,-0.94257 -0.94258,-0.95499 -0.94258,-2.33165 0,-0.89296 0.43408,-1.64951 0.93018,-1.6247 2.84014,-1.6247 h 3.27422 v -1.63711 q 0,-0.69453 -0.47129,-1.16582 -0.47129,-0.47129 -1.16582,-0.47129 h -3.27422 q -0.81856,0 -0.81856,-0.81856 0,-0.81855 0.81856,-0.81855 h 3.27422 q 1.37666,0 2.31924,0.95498 0.95498,0.94258 0.95498,2.31924 v 7.36699 q 0,0.81855 -0.81856,0.81855 z m 3.27422,-4.91132 h -3.27422 q -0.68213,0 -1.16582,0.48369 -0.47129,0.47129 -0.47129,1.15341 0,0.66973 0.48369,1.15342 0.48369,0.48369 1.15342,0.48369 h 3.27422 z"/>
      <path id="path1860" style="font-style:normal;font-variant:normal;font-weight:normal;font-stretch:normal;font-size:25.39999962px;font-family:ISOCPEUR;-inkscape-font-specification:'ISOCPEUR, Normal';font-variant-ligatures:normal;font-variant-caps:normal;font-variant-numeric:normal;font-feature-settings:normal;text-align:start;writing-mode:lr-tb;text-anchor:start;fill:#ffffff;fill-opacity:1;stroke-width:0.26458332" d="m 189.64341,275.96561 v 4.91132 q 0,0.66973 0.48369,1.15342 0.48369,0.48369 1.15342,0.48369 h 2.45566 q 0.81856,0 0.81856,0.81856 0,0.81855 -0.81856,0.81855 h -2.45566 q -1.37666,0 -2.33164,-0.94257 -0.94258,-0.95499 -0.94258,-2.33165 v -4.91132 q 0,-1.37666 0.94258,-2.31924 0.95498,-0.95498 2.33164,-0.95498 h 2.45566 q 0.81856,0 0.81856,0.81855 0,0.81856 -0.81856,0.81856 h -2.45566 q -0.68213,0 -1.16582,0.48369 -0.47129,0.47129 -0.47129,1.15342 z"/>
      <path id="path1862" style="font-style:normal;font-variant:normal;font-weight:normal;font-stretch:normal;font-size:25.39999962px;font-family:ISOCPEUR;-inkscape-font-specification:'ISOCPEUR, Normal';font-variant-ligatures:normal;font-variant-caps:normal;font-variant-numeric:normal;font-feature-settings:normal;text-align:start;writing-mode:lr-tb;text-anchor:start;fill:#ffffff;fill-opacity:1;stroke-width:0.26458332" d="m 201.92172,274.3285 q -1.01699,0 -1.73633,0.71933 -0.71933,0.71934 -0.71933,1.73633 v 0.81856 h 4.91133 v -0.81856 q 0,-1.01699 -0.71934,-1.73633 -0.71934,-0.71933 -1.73633,-0.71933 z m -2.45566,4.91133 v 1.6371 q 0,0.66973 0.48369,1.15342 0.48369,0.48369 1.15342,0.48369 h 4.09277 q 0.81856,0 0.81856,0.81856 0,0.81855 -0.81856,0.81855 h -4.09277 q -1.37666,0 -2.33164,-0.94257 -0.94258,-0.95499 -0.94258,-2.33165 v -4.09277 q 0,-1.69912 1.19062,-2.88974 1.20303,-1.20303 2.90215,-1.20303 1.72393,0 2.90215,1.19062 1.19063,1.17823 1.19063,2.90215 v 2.45567 z"/>
    </g>
    <circle r="1.0690781" cy="232.85529" cx="45.168549" id="path846" style="fill:#ffffff;fill-opacity:0.67156863;stroke:none;stroke-width:0.47624999;stroke-miterlimit:4;stroke-dasharray:none;stroke-opacity:1;filter:url(#filter988)"/>
    <circle transform="matrix(0.72080646,0,0,0.72080646,12.974539,64.509872)" r="0.96885204" cy="232.22052" cx="46.471485" id="path848" style="fill:#ffffff;fill-opacity:0.82843137;stroke:none;stroke-width:0.47624999;stroke-miterlimit:4;stroke-dasharray:none;stroke-opacity:1;filter:url(#filter984)"/>
    <circle transform="matrix(0.59361679,0,0,0.59361679,14.004629,95.838824)" r="0.96885204" cy="236.99625" cx="35.624256" id="path848-7" style="fill:#ffffff;fill-opacity:0.50490195;stroke:none;stroke-width:0.47624999;stroke-miterlimit:4;stroke-dasharray:none;stroke-opacity:1;filter:url(#filter984-6)"/>
    <circle r="0.96885204" cy="231.89357" cx="109.6131" id="path848-2" style="fill:#ffffff;fill-opacity:0.73039216;stroke:none;stroke-width:0.47624999;stroke-miterlimit:4;stroke-dasharray:none;stroke-opacity:1;filter:url(#filter984-8)"/>
    <circle transform="matrix(0.59361679,0,0,0.59361679,61.535135,127.68332)" r="0.96885204" cy="236.99625" cx="35.624256" id="path848-7-6" style="fill:#ffffff;fill-opacity:0.66666669;stroke:none;stroke-width:0.47624999;stroke-miterlimit:4;stroke-dasharray:none;stroke-opacity:1;filter:url(#filter984-6-7)"/>
    <circle transform="matrix(0.59361679,0,0,0.59361679,133.72859,107.74508)" r="0.96885204" cy="236.99625" cx="35.624256" id="path848-7-9" style="fill:#ffffff;fill-opacity:0.627451;stroke:none;stroke-width:0.47624999;stroke-miterlimit:4;stroke-dasharray:none;stroke-opacity:1;filter:url(#filter984-6-4)"/>
    <circle transform="matrix(0.59361679,0,0,0.59361679,180.03068,90.169184)" r="0.96885204" cy="236.99625" cx="35.624256" id="path848-7-1" style="fill:#ffffff;fill-opacity:1;stroke:none;stroke-width:0.47624999;stroke-miterlimit:4;stroke-dasharray:none;stroke-opacity:1;filter:url(#filter984-6-72)"/>
    <circle transform="matrix(0.59361679,0,0,0.59361679,153.47784,89.980199)" r="0.96885204" cy="236.99625" cx="35.624256" id="path848-7-2" style="fill:#ffffff;fill-opacity:1;stroke:none;stroke-width:0.47624999;stroke-miterlimit:4;stroke-dasharray:none;stroke-opacity:1;filter:url(#filter984-6-6)"/>
    <circle transform="matrix(0.67982369,0,0,0.67982369,117.3396,68.799267)" r="0.96885204" cy="236.99625" cx="35.624256" id="path848-7-65" style="fill:#ffffff;fill-opacity:1;stroke:none;stroke-width:0.47624999;stroke-miterlimit:4;stroke-dasharray:none;stroke-opacity:1;filter:url(#filter984-6-1)"/>
    <circle transform="matrix(0.28882939,0,0,0.28882939,180.75401,190.49101)" r="0.96885204" cy="236.99625" cx="35.624256" id="path848-7-3" style="fill:#ffffff;fill-opacity:1;stroke:none;stroke-width:0.47624999;stroke-miterlimit:4;stroke-dasharray:none;stroke-opacity:1;filter:url(#filter984-6-0)"/>
    <circle transform="matrix(0.45138267,0,0,0.45138267,200.94903,167.27453)" r="0.96885204" cy="236.99625" cx="35.624256" id="path848-7-0" style="fill:#ffffff;fill-opacity:1;stroke:none;stroke-width:0.47624999;stroke-miterlimit:4;stroke-dasharray:none;stroke-opacity:1;filter:url(#filter984-6-46)"/>
    <circle transform="matrix(0.59361679,0,0,0.59361679,190.18878,143.27484)" r="0.96885204" cy="236.99625" cx="35.624256" id="path848-7-95" style="fill:#ffffff;fill-opacity:1;stroke:none;stroke-width:0.47624999;stroke-miterlimit:4;stroke-dasharray:none;stroke-opacity:1;filter:url(#filter984-6-2)"/>
    <circle transform="matrix(0.59361679,0,0,0.59361679,213.33982,107.98131)" r="0.96885204" cy="236.99625" cx="35.624256" id="path848-7-37" style="fill:#ffffff;fill-opacity:0.56862748;stroke:none;stroke-width:0.47624999;stroke-miterlimit:4;stroke-dasharray:none;stroke-opacity:1;filter:url(#filter984-6-06)"/>
    <circle transform="matrix(0.39042519,0,0,0.39042519,211.88492,144.46695)" r="0.96885204" cy="236.99625" cx="35.624256" id="path848-7-05" style="fill:#ffffff;fill-opacity:0.81372547;stroke:none;stroke-width:0.47624999;stroke-miterlimit:4;stroke-dasharray:none;stroke-opacity:1;filter:url(#filter984-6-8)"/>
    <circle transform="matrix(0.43557081,0,0,0.43557081,107.12654,187.8887)" r="0.96885204" cy="236.99625" cx="35.624256" id="path848-7-7" style="fill:#ffffff;fill-opacity:1;stroke:none;stroke-width:0.47624999;stroke-miterlimit:4;stroke-dasharray:none;stroke-opacity:1;filter:url(#filter984-6-85)"/>
    <circle transform="matrix(0.24878921,0,0,0.24878921,100.45031,216.42244)" r="0.96885204" cy="236.99625" cx="35.624256" id="path848-7-23" style="fill:#ffffff;fill-opacity:1;stroke:none;stroke-width:0.47624999;stroke-miterlimit:4;stroke-dasharray:none;stroke-opacity:1;filter:url(#filter984-6-3)"/>
    <circle transform="matrix(0.46430645,0,0,0.46430645,74.982538,176.52087)" r="0.96885204" cy="236.99625" cx="35.624256" id="path848-7-69" style="fill:#ffffff;fill-opacity:1;stroke:none;stroke-width:0.47624999;stroke-miterlimit:4;stroke-dasharray:none;stroke-opacity:1;filter:url(#filter984-6-07)"/>
    <circle transform="matrix(0.36373173,0,0,0.36373173,32.979278,189.9499)" r="0.96885204" cy="236.99625" cx="35.624256" id="path848-7-08" style="fill:#ffffff;fill-opacity:0.84803921;stroke:none;stroke-width:0.47624999;stroke-miterlimit:4;stroke-dasharray:none;stroke-opacity:1;filter:url(#filter984-6-11)"/>
    <circle transform="matrix(0.69521259,0,0,0.69521259,-9.7838207,110.30557)" r="0.96885204" cy="236.99625" cx="35.624256" id="path848-7-03" style="fill:#ffffff;fill-opacity:0.38235295;stroke:none;stroke-width:0.47624999;stroke-miterlimit:4;stroke-dasharray:none;stroke-opacity:1;filter:url(#filter984-6-9)"/>
    <circle transform="matrix(0.59361679,0,0,0.59361679,1.625909,143.9363)" r="0.96885204" cy="236.99625" cx="35.624256" id="path848-7-21" style="fill:#ffffff;fill-opacity:1;stroke:none;stroke-width:0.47624999;stroke-miterlimit:4;stroke-dasharray:none;stroke-opacity:1;filter:url(#filter984-6-70)"/>
    <g transform="matrix(0.02228133,0.03599194,-0.03599194,0.02228133,232.62171,267.38151)" id="g1751">
      <path style="fill:#ffffff" d="m 143.145,517.94 c 26.671,0.842 43.522,-9.193 60.178,-33.011 22.739,-32.518 39.597,-73.232 52.196,-140.573 9.147,-48.893 3.897,-102.775 -7.627,-146.144 -12.317,-46.354 -26.888,-81.488 -50.65,-112.977 -12.629,-16.737 -31.472,-30.15 -36.181,-38.743 -3.71,-6.771 -6.303,-46.289 -6.303,-46.289 0,0 -4.109,39.785 -8.445,45.921 -5.594,7.92 -28.11,21.284 -43.849,37.065 -28.547,28.621 -55.443,76.406 -65.651,115.888 -9.141,35.352 -14.352,81.497 -6.57,139.722 7.955,59.518 41.36,122.158 53.841,143.162 14.86,25.007 31.625,35.112 59.061,35.979 z" id="path1728"/>
      <path style="fill:#ffffff" d="m 193.021,382.495 c 19.792,-6.546 35.366,13.445 50.423,33.258 20.334,26.757 36.612,74.987 38.329,116.181 1.305,31.326 1.146,45.844 -2.962,67.983 -4.231,22.803 -10.151,29.497 -11.428,30.237 -3.394,1.967 -10.431,1.657 -16.339,1.104 -17.801,-1.666 -24.051,-2.505 -26.266,-4.997 -1.878,-2.112 1.425,-22.011 -4.49,-47.776 -6.68,-29.101 -17.971,-45.704 -37.497,-60.997 -27.256,-21.347 -33.702,-13.221 -34.758,-20.051 -1.635,-10.569 19.985,-47.695 22.208,-63.476 2.615,-18.57 6.857,-46.199 22.78,-51.466 z" id="path1730"/>
      <path style="fill:#ffffff" d="M 93.197,379.021 C 73.514,372.06 57.619,391.719 42.244,411.212 21.481,437.537 3.712,484.205 1.329,525.356 c -1.812,31.293 -1.888,45.812 1.861,68.034 3.862,22.888 9.673,29.705 10.937,30.472 3.362,2.038 10.403,1.876 16.319,1.448 17.824,-1.292 24.087,-2 26.342,-4.444 1.911,-2.072 -1.068,-22.037 5.262,-47.674 7.15,-28.955 18.707,-45.318 38.478,-60.197 27.597,-20.771 33.911,-12.51 35.077,-19.316 1.805,-10.534 -19.211,-48.108 -21.177,-63.934 -2.315,-18.621 -5.396,-45.123 -21.231,-50.724 z" id="path1732"/>
      <path style="fill:#000000" d="m 128.383,111.703 c 20.33,7.021 27.709,39.369 16.469,72.192 -11.239,32.823 -36.87,53.77 -57.199,46.75 -20.329,-7.021 -27.709,-39.369 -16.469,-72.192 11.24,-32.823 36.87,-53.77 57.199,-46.75 z" id="path1734"/>
      <path style="fill:#ffffff" d="m 132.016,1074.85 c 0,0 -3.044,-252.274 -27.833,-334.948 -24.654,-82.219 -59.814,-144.286 5.264,-185.328 41.598,-26.234 30.275,-26.207 71.227,-1.799 31.12,18.548 19.802,71.613 2.849,132.032 -9.831,35.037 -21.558,72.546 -28.003,107.232 -17.561,94.501 -23.504,282.811 -23.504,282.811 z" id="path1736"/>
    </g>
    <circle transform="matrix(0.59361679,0,0,0.59361679,30.633573,150.25557)" r="0.96885204" cy="236.99625" cx="35.624256" id="path848-7-6-0" style="fill:#ffffff;fill-opacity:0.66666667;stroke:none;stroke-width:0.47624999;stroke-miterlimit:4;stroke-dasharray:none;stroke-opacity:1;filter:url(#filter984-6-7-6)"/>
    <circle transform="matrix(0.59361679,0,0,0.59361679,134.37865,126.56864)" r="0.96885204" cy="236.99625" cx="35.624256" id="path848-7-6-4" style="fill:#ffffff;fill-opacity:0.66666667;stroke:none;stroke-width:0.47624999;stroke-miterlimit:4;stroke-dasharray:none;stroke-opacity:1;filter:url(#filter984-6-7-4)"/>
    <circle transform="matrix(0.39818131,0,0,0.39818131,131.65727,188.63381)" r="0.96885204" cy="236.99625" cx="35.624256" id="path848-7-6-6" style="fill:#ffffff;fill-opacity:0.66666667;stroke:none;stroke-width:0.47624999;stroke-miterlimit:4;stroke-dasharray:none;stroke-opacity:1;filter:url(#filter984-6-7-8)"/>
    <circle transform="matrix(0.59361679,0,0,0.59361679,-3.034662,90.097298)" r="0.96885204" cy="236.99625" cx="35.624256" id="path848-7-99" style="fill:#ffffff;fill-opacity:0.50490196;stroke:none;stroke-width:0.47624999;stroke-miterlimit:4;stroke-dasharray:none;stroke-opacity:1;filter:url(#filter984-6-852)"/>
  </g>
</svg>
